<svg width="46" height="46" viewBox="0 0 46 46" fill="none" xmlns="http://www.w3.org/2000/svg">
<path d="M42 45.5L26.25 29.75C25 30.75 23.5625 31.5417 21.9375 32.125C20.3125 32.7083 18.5833 33 16.75 33C12.2083 33 8.365 31.4267 5.22 28.28C2.075 25.1333 0.501667 21.29 0.5 16.75C0.5 12.2083 2.07333 8.365 5.22 5.22C8.36667 2.075 12.21 0.501667 16.75 0.5C21.2917 0.5 25.1358 2.07333 28.2825 5.22C31.4292 8.36667 33.0017 12.21 33 16.75C33 18.5833 32.7083 20.3125 32.125 21.9375C31.5417 23.5625 30.75 25 29.75 26.25L45.5 42L42 45.5ZM16.75 28C19.875 28 22.5317 26.9067 24.72 24.72C26.9083 22.5333 28.0017 19.8767 28 16.75C28 13.625 26.9067 10.9692 24.72 8.7825C22.5333 6.59583 19.8767 5.50167 16.75 5.5C13.625 5.5 10.9692 6.59417 8.7825 8.7825C6.59583 10.9708 5.50167 13.6267 5.5 16.75C5.5 19.875 6.59417 22.5317 8.7825 24.72C10.9708 26.9083 13.6267 28.0017 16.75 28Z" fill="white"/>
</svg>
